<?xml version="1.0" standalone="no"?>
<!DOCTYPE svg PUBLIC "-//W3C//DTD SVG 20010904//EN"
 "http://www.w3.org/TR/2001/REC-SVG-20010904/DTD/svg10.dtd">
<svg version="1.0" xmlns="http://www.w3.org/2000/svg"
 width="20.000000pt" height="20.000000pt" viewBox="0 0 225.000000 225.000000"
 preserveAspectRatio="xMidYMid meet">

<g transform="translate(0.000000,225.000000) scale(0.100000,-0.100000)"
fill="#000000" stroke="none">
<path d="M1120 2235 c-452 -74 -804 -396 -921 -842 -29 -111 -37 -337 -15
-460 113 -650 757 -1060 1401 -893 118 31 304 126 405 207 109 88 112 98 23
108 -341 34 -615 278 -688 609 -24 107 -17 293 15 386 100 297 344 501 650
542 73 9 90 15 88 27 -2 9 -41 47 -88 84 -113 91 -289 178 -430 212 -133 32
-317 41 -440 20z"/>
</g>
</svg>
