<?xml version="1.0" standalone="no"?>
<!DOCTYPE svg PUBLIC "-//W3C//DTD SVG 20010904//EN"
 "http://www.w3.org/TR/2001/REC-SVG-20010904/DTD/svg10.dtd">
<svg version="1.0" xmlns="http://www.w3.org/2000/svg"
 width="20.000000pt" height="20.000000pt" viewBox="0 0 225.000000 225.000000"
 preserveAspectRatio="xMidYMid meet">

<g transform="translate(0.000000,225.000000) scale(0.100000,-0.100000)"
fill="#000000" stroke="none">
<path d="M1076 2229 l-26 -20 0 -169 c0 -195 6 -212 75 -212 69 0 75 17 75
212 l0 169 -26 20 c-15 12 -37 21 -49 21 -12 0 -34 -9 -49 -21z"/>
<path d="M332 1917 c-14 -15 -22 -36 -22 -57 0 -30 13 -48 113 -147 103 -103
116 -113 150 -113 49 0 77 28 77 77 0 34 -10 47 -113 150 -101 101 -117 113
-148 113 -24 0 -42 -7 -57 -23z"/>
<path d="M1713 1827 c-103 -103 -113 -116 -113 -150 0 -49 28 -77 77 -77 34 0
47 10 150 113 101 101 113 117 113 148 0 46 -34 79 -80 79 -30 0 -48 -13 -147
-113z"/>
<path d="M980 1684 c-200 -52 -363 -219 -416 -425 -24 -93 -15 -242 19 -331
70 -183 219 -316 408 -364 92 -24 241 -15 331 19 275 105 429 393 363 676 -49
205 -213 372 -420 426 -73 19 -212 18 -285 -1z"/>
<path d="M63 1203 c-29 -6 -63 -49 -63 -79 0 -12 11 -36 24 -51 24 -28 25 -28
168 -31 113 -3 152 0 181 12 59 24 72 91 25 133 -17 15 -40 18 -167 20 -80 0
-156 -1 -168 -4z"/>
<path d="M1885 1203 c-77 -20 -83 -118 -8 -149 29 -12 68 -15 181 -12 143 3
144 3 168 31 30 36 30 68 0 104 l-24 28 -149 2 c-81 1 -157 -1 -168 -4z"/>
<path d="M423 537 c-101 -101 -113 -117 -113 -148 0 -46 34 -79 80 -79 30 0
48 13 147 113 103 103 113 116 113 150 0 24 -7 44 -20 57 -13 13 -33 20 -57
20 -34 0 -47 -10 -150 -113z"/>
<path d="M1620 630 c-13 -13 -20 -33 -20 -57 0 -34 10 -47 113 -150 101 -101
117 -113 148 -113 46 0 79 34 79 80 0 30 -13 48 -113 147 -103 103 -116 113
-150 113 -24 0 -44 -7 -57 -20z"/>
<path d="M1103 422 c-46 -7 -53 -34 -53 -213 l0 -168 26 -20 c15 -12 37 -21
49 -21 12 0 34 9 49 21 l26 20 0 168 c0 130 -3 171 -15 188 -15 22 -45 31 -82
25z"/>
</g>
</svg>
